#Comment line ignore any data following # character 
#Hierarchical Translation and Rotation (.htr) file 
[Header]	
#Header keywords are followed by a single value 
FileType HTR		#Single word string
DataType HTRS		#Translation followed by rotation and scale data
FileVersion 1		#integer
NumSegments 84		#integer
NumFrames 2		#integer
DataFrameRate 30		#integer, data frame rate in this file
EulerRotationOrder ZYX
CalibrationUnits mm
RotationUnits Degrees
GlobalAxisofGravity Y
BoneLengthAxis Y
ScaleFactor 1.00
[SegmentNames&Hierarchy]
#CHILD	PARENT
MASTER GLOBAL
root MASTER
chest root
L_mid_tent01 root
R_mid_tent01 root
spine01 root
Bip01_Neck chest
L_humerus chest
R_humerus chest
weapon_bone chest
Bip01_Head Bip01_Neck
eye_left_bone Bip01_Head
eye_right_bone Bip01_Head
L_forearm L_humerus
L_front_hand L_forearm
L_weapon_bone L_forearm
L_front_hand01_01 L_front_hand
L_front_hand02_01 L_front_hand
L_front_hand03_01 L_front_hand
L_front_hand01_02 L_front_hand01_01
L_front_hand02_02 L_front_hand02_01
L_front_hand03_02 L_front_hand03_01
R_forearm R_humerus
R_front_hand R_forearm
R_weapon_bone R_forearm
R_front_hand01_01 R_front_hand
R_front_hand02_01 R_front_hand
R_front_hand03_01 R_front_hand
R_front_hand01_02 R_front_hand01_01
R_front_hand02_02 R_front_hand02_01
R_front_hand03_02 R_front_hand03_01
null_rope01_connect L_mid_tent01
Rope1_Seg01 null_rope01_connect
Rope1_Seg02 Rope1_Seg01
Rope1_Seg03 Rope1_Seg02
Rope1_Seg04 Rope1_Seg03
Rope1_Seg05 Rope1_Seg04
Rope1_Seg06 Rope1_Seg05
Rope1_Seg07 Rope1_Seg06
Rope1_Seg09 Rope1_Seg07
L_mid_hand01 Rope1_Seg09
L_mid_hand02 Rope1_Seg09
L_mid_hand03 Rope1_Seg09
null_rope02_connect R_mid_tent01
Rope2_Seg01 null_rope02_connect
Rope2_Seg02 Rope2_Seg01
Rope2_Seg03 Rope2_Seg02
Rope2_Seg04 Rope2_Seg03
Rope2_Seg05 Rope2_Seg04
Rope2_Seg06 Rope2_Seg05
Rope2_Seg07 Rope2_Seg06
Rope2_Seg09 Rope2_Seg07
R_mid_hand01 Rope2_Seg09
R_mid_hand02 Rope2_Seg09
R_mid_hand03 Rope2_Seg09
spine02 spine01
spine03 spine02
pelvis spine03
null_rope03_connect pelvis
null_rope04_connect pelvis
Rope3_Seg01 null_rope03_connect
Rope3_Seg02 Rope3_Seg01
Rope3_Seg03 Rope3_Seg02
Rope3_Seg04 Rope3_Seg03
Rope3_Seg05 Rope3_Seg04
Rope3_Seg06 Rope3_Seg05
Rope3_Seg07 Rope3_Seg06
Rope3_Seg08 Rope3_Seg07
Rope3_Seg09 Rope3_Seg08
R_rear_hand01 Rope3_Seg09
R_rear_hand02 Rope3_Seg09
R_rear_hand03 Rope3_Seg09
Rope4_Seg01 null_rope04_connect
Rope4_Seg02 Rope4_Seg01
Rope4_Seg03 Rope4_Seg02
Rope4_Seg04 Rope4_Seg03
Rope4_Seg05 Rope4_Seg04
Rope4_Seg06 Rope4_Seg05
Rope4_Seg07 Rope4_Seg06
Rope4_Seg08 Rope4_Seg07
Rope4_Seg09 Rope4_Seg08
L_rear_hand01 Rope4_Seg09
L_rear_hand02 Rope4_Seg09
L_rear_hand03 Rope4_Seg09
[BasePosition]
#SegmentName Tx, Ty, Tz, Rx, Ry, Rz, BoneLength
MASTER 0.000000 0.000000 0.000000 -90.000000 0.000000 0.000000 10.000000 
root 0.000000 0.000000 0.000000 0.000000 0.000000 0.000000 10.000000 
chest 0.000000 0.000000 0.000000 0.000000 0.000000 0.000000 10.000000 
L_mid_tent01 0.000000 0.000000 0.000000 0.000000 0.000000 0.000000 10.000000 
R_mid_tent01 0.000000 0.000000 0.000000 0.000000 0.000000 0.000000 10.000000 
spine01 0.000000 0.000000 0.000000 0.000000 0.000000 0.000000 10.000000 
Bip01_Neck 0.000000 0.000000 0.000000 0.000000 0.000000 0.000000 10.000000 
L_humerus 0.000000 0.000000 0.000000 0.000000 0.000000 0.000000 10.000000 
R_humerus 0.000000 0.000000 0.000000 0.000000 0.000000 0.000000 10.000000 
weapon_bone 0.000000 0.000000 0.000000 0.000000 0.000000 0.000000 10.000000 
Bip01_Head 0.000000 0.000000 0.000000 0.000000 0.000000 0.000000 10.000000 
eye_left_bone 0.000000 0.000000 0.000000 0.000000 0.000000 0.000000 10.000000 
eye_right_bone 0.000000 0.000000 0.000000 0.000000 0.000000 0.000000 10.000000 
L_forearm 0.000000 0.000000 0.000000 0.000000 0.000000 0.000000 10.000000 
L_front_hand 0.000000 0.000000 0.000000 0.000000 0.000000 0.000000 10.000000 
L_weapon_bone 0.000000 0.000000 0.000000 0.000000 0.000000 0.000000 10.000000 
L_front_hand01_01 0.000000 0.000000 0.000000 0.000000 0.000000 0.000000 10.000000 
L_front_hand02_01 0.000000 0.000000 0.000000 0.000000 0.000000 0.000000 10.000000 
L_front_hand03_01 0.000000 0.000000 0.000000 0.000000 0.000000 0.000000 10.000000 
L_front_hand01_02 0.000000 0.000000 0.000000 0.000000 0.000000 0.000000 10.000000 
L_front_hand02_02 0.000000 0.000000 0.000000 0.000000 0.000000 0.000000 10.000000 
L_front_hand03_02 0.000000 0.000000 0.000000 0.000000 0.000000 0.000000 10.000000 
R_forearm 0.000000 0.000000 0.000000 0.000000 0.000000 0.000000 10.000000 
R_front_hand 0.000000 0.000000 0.000000 0.000000 0.000000 0.000000 10.000000 
R_weapon_bone 0.000000 0.000000 0.000000 0.000000 0.000000 0.000000 10.000000 
R_front_hand01_01 0.000000 0.000000 0.000000 0.000000 0.000000 0.000000 10.000000 
R_front_hand02_01 0.000000 0.000000 0.000000 0.000000 0.000000 0.000000 10.000000 
R_front_hand03_01 0.000000 0.000000 0.000000 0.000000 0.000000 0.000000 10.000000 
R_front_hand01_02 0.000000 0.000000 0.000000 0.000000 0.000000 0.000000 10.000000 
R_front_hand02_02 0.000000 0.000000 0.000000 0.000000 0.000000 0.000000 10.000000 
R_front_hand03_02 0.000000 0.000000 0.000000 0.000000 0.000000 0.000000 10.000000 
null_rope01_connect 0.000000 0.000000 0.000000 0.000000 0.000000 0.000000 10.000000 
Rope1_Seg01 0.000000 0.000000 0.000000 0.000000 0.000000 0.000000 10.000000 
Rope1_Seg02 0.000000 0.000000 0.000000 0.000000 0.000000 0.000000 10.000000 
Rope1_Seg03 0.000000 0.000000 0.000000 0.000000 0.000000 0.000000 10.000000 
Rope1_Seg04 0.000000 0.000000 0.000000 0.000000 0.000000 0.000000 10.000000 
Rope1_Seg05 0.000000 0.000000 0.000000 0.000000 0.000000 0.000000 10.000000 
Rope1_Seg06 0.000000 0.000000 0.000000 0.000000 0.000000 0.000000 10.000000 
Rope1_Seg07 0.000000 0.000000 0.000000 0.000000 0.000000 0.000000 10.000000 
Rope1_Seg09 0.000000 0.000000 0.000000 0.000000 0.000000 0.000000 10.000000 
L_mid_hand01 0.000000 0.000000 0.000000 0.000000 0.000000 0.000000 10.000000 
L_mid_hand02 0.000000 0.000000 0.000000 0.000000 0.000000 0.000000 10.000000 
L_mid_hand03 0.000000 0.000000 0.000000 0.000000 0.000000 0.000000 10.000000 
null_rope02_connect 0.000000 0.000000 0.000000 0.000000 0.000000 0.000000 10.000000 
Rope2_Seg01 0.000000 0.000000 0.000000 0.000000 0.000000 0.000000 10.000000 
Rope2_Seg02 0.000000 0.000000 0.000000 0.000000 0.000000 0.000000 10.000000 
Rope2_Seg03 0.000000 0.000000 0.000000 0.000000 0.000000 0.000000 10.000000 
Rope2_Seg04 0.000000 0.000000 0.000000 0.000000 0.000000 0.000000 10.000000 
Rope2_Seg05 0.000000 0.000000 0.000000 0.000000 0.000000 0.000000 10.000000 
Rope2_Seg06 0.000000 0.000000 0.000000 0.000000 0.000000 0.000000 10.000000 
Rope2_Seg07 0.000000 0.000000 0.000000 0.000000 0.000000 0.000000 10.000000 
Rope2_Seg09 0.000000 0.000000 0.000000 0.000000 0.000000 0.000000 10.000000 
R_mid_hand01 0.000000 0.000000 0.000000 0.000000 0.000000 0.000000 10.000000 
R_mid_hand02 0.000000 0.000000 0.000000 0.000000 0.000000 0.000000 10.000000 
R_mid_hand03 0.000000 0.000000 0.000000 0.000000 0.000000 0.000000 10.000000 
spine02 0.000000 0.000000 0.000000 0.000000 0.000000 0.000000 10.000000 
spine03 0.000000 0.000000 0.000000 0.000000 0.000000 0.000000 10.000000 
pelvis 0.000000 0.000000 0.000000 0.000000 0.000000 0.000000 10.000000 
null_rope03_connect 0.000000 0.000000 0.000000 0.000000 0.000000 0.000000 10.000000 
null_rope04_connect 0.000000 0.000000 0.000000 0.000000 0.000000 0.000000 10.000000 
Rope3_Seg01 0.000000 0.000000 0.000000 0.000000 0.000000 0.000000 10.000000 
Rope3_Seg02 0.000000 0.000000 0.000000 0.000000 0.000000 0.000000 10.000000 
Rope3_Seg03 0.000000 0.000000 0.000000 0.000000 0.000000 0.000000 10.000000 
Rope3_Seg04 0.000000 0.000000 0.000000 0.000000 0.000000 0.000000 10.000000 
Rope3_Seg05 0.000000 0.000000 0.000000 0.000000 0.000000 0.000000 10.000000 
Rope3_Seg06 0.000000 0.000000 0.000000 0.000000 0.000000 0.000000 10.000000 
Rope3_Seg07 0.000000 0.000000 0.000000 0.000000 0.000000 0.000000 10.000000 
Rope3_Seg08 0.000000 0.000000 0.000000 0.000000 0.000000 0.000000 10.000000 
Rope3_Seg09 0.000000 0.000000 0.000000 0.000000 0.000000 0.000000 10.000000 
R_rear_hand01 0.000000 0.000000 0.000000 0.000000 0.000000 0.000000 10.000000 
R_rear_hand02 0.000000 0.000000 0.000000 0.000000 0.000000 0.000000 10.000000 
R_rear_hand03 0.000000 0.000000 0.000000 0.000000 0.000000 0.000000 10.000000 
Rope4_Seg01 0.000000 0.000000 0.000000 0.000000 0.000000 0.000000 10.000000 
Rope4_Seg02 0.000000 0.000000 0.000000 0.000000 0.000000 0.000000 10.000000 
Rope4_Seg03 0.000000 0.000000 0.000000 0.000000 0.000000 0.000000 10.000000 
Rope4_Seg04 0.000000 0.000000 0.000000 0.000000 0.000000 0.000000 10.000000 
Rope4_Seg05 0.000000 0.000000 0.000000 0.000000 0.000000 0.000000 10.000000 
Rope4_Seg06 0.000000 0.000000 0.000000 0.000000 0.000000 0.000000 10.000000 
Rope4_Seg07 0.000000 0.000000 0.000000 0.000000 0.000000 0.000000 10.000000 
Rope4_Seg08 0.000000 0.000000 0.000000 0.000000 0.000000 0.000000 10.000000 
Rope4_Seg09 0.000000 0.000000 0.000000 0.000000 0.000000 0.000000 10.000000 
L_rear_hand01 0.000000 0.000000 0.000000 0.000000 0.000000 0.000000 10.000000 
L_rear_hand02 0.000000 0.000000 0.000000 0.000000 0.000000 0.000000 10.000000 
L_rear_hand03 0.000000 0.000000 0.000000 0.000000 0.000000 0.000000 10.000000 
#Beginning of Data. Separated by tabs
#Fr	Tx	Ty	Tz	Rx	Ry	Rz	SF
[MASTER]
3 -323.799591 542.508240 300.977631 0.001660 0.001660 0.001660 699.820618
4 -501.443970 783.052246 490.602386 0.001660 0.001660 0.001660 1051.336060
[root]
3 -9.952698 -72.566261 1484.450439 -92.281586 -20.026237 -89.613693 1486.256470
4 -2.622528 -76.482697 1450.438477 -93.363083 -27.131092 -89.731758 1452.456055
[chest]
3 -84.512650 -34.090519 0.000000 -7.420674 -4.394191 172.117798 91.129311
4 -84.512650 -34.090519 0.000000 -10.643535 -6.763442 174.809998 91.129311
[L_mid_tent01]
3 27.299057 22.179258 -249.918686 -5.316070 9.177359 52.412598 252.381683
4 27.299047 22.179258 -249.918686 0.688135 4.196842 71.327698 252.381668
[R_mid_tent01]
3 23.228794 24.509907 226.238495 168.622986 -18.794060 72.577217 228.744751
4 23.228794 24.509907 226.238495 166.717987 -19.206221 74.987061 228.744751
[spine01]
3 -0.361383 -0.195265 0.000000 0.001949 0.001308 22.283676 0.410763
4 -0.361383 -0.195265 0.000000 0.001950 0.001306 22.379467 0.410763
[Bip01_Neck]
3 165.484543 71.581718 0.000119 176.643677 -1.657967 43.431915 180.302734
4 165.484543 71.581718 0.000119 176.643677 -1.657967 43.431911 180.302734
[L_humerus]
3 -13.983130 -135.272980 -120.471481 -4.026658 68.277969 85.928215 181.680161
4 -13.983130 -135.272980 -120.471481 -2.590864 68.401810 87.310173 181.680161
[R_humerus]
3 -13.983309 -135.273102 125.287651 27.930595 -72.194168 67.632164 184.909012
4 -13.983309 -135.273102 125.287651 28.321667 -74.889450 67.148232 184.909012
[weapon_bone]
3 235.964890 -300.705902 0.000000 0.000000 -89.951546 -128.212341 382.234833
4 235.964890 -300.705902 0.000000 0.000000 -89.951546 -128.212341 382.234833
[Bip01_Head]
3 213.436539 185.736603 11.503528 7.908536 4.611666 -43.866627 283.170563
4 213.432755 185.747223 11.366806 9.851602 5.248484 -43.853466 283.169189
[eye_left_bone]
3 -24.626970 125.451866 -64.772606 0.000000 -90.000000 -99.840431 143.318359
4 -24.626970 125.451866 -64.772606 0.000000 -90.000000 -99.840431 143.318359
[eye_right_bone]
3 -24.626970 125.451866 64.327362 0.000000 -89.965736 80.156380 143.117676
4 -24.626970 125.451866 64.327362 0.000000 -89.972023 80.156387 143.117676
[L_forearm]
3 322.776093 0.000000 -0.000119 0.000406 -0.002312 -109.910019 322.776093
4 322.776093 0.000000 -0.000119 0.000410 -0.002311 -110.109131 322.776093
[L_front_hand]
3 241.149185 -0.042021 -3.300071 -178.667953 -1.835447 -27.422344 241.171753
4 241.149185 -0.042021 -3.300071 -178.667953 -1.835447 -27.422350 241.171753
[L_weapon_bone]
3 156.183838 0.000000 0.000000 0.000014 0.000007 0.000001 156.183838
4 156.183838 0.000000 0.000000 0.000014 0.000007 0.000001 156.183838
[L_front_hand01_01]
3 86.095154 20.947098 -0.655860 -0.366594 -0.477154 75.385574 88.609184
4 86.095154 20.947098 -0.655860 -0.364720 -0.478588 74.936234 88.609184
[L_front_hand02_01]
3 86.935165 -11.437475 24.513514 154.399796 -59.883835 -61.369587 91.046425
4 86.935165 -11.437475 24.513514 153.708527 -59.690228 -60.568150 91.046425
[L_front_hand03_01]
3 86.637497 -14.123976 -20.424902 -153.913849 58.118122 -62.702866 90.126129
4 86.637497 -14.123976 -20.424902 -153.279221 57.922546 -61.955151 90.126129
[L_front_hand01_02]
3 71.020905 -0.000179 0.000030 0.000319 -0.002325 -105.605537 71.020905
4 71.020905 -0.000179 0.000030 0.000318 -0.002326 -105.568283 71.020905
[L_front_hand02_02]
3 71.020927 -0.000119 0.000060 0.000319 -0.002325 -105.605537 71.020927
4 71.020927 -0.000119 0.000060 0.000318 -0.002326 -105.568283 71.020927
[L_front_hand03_02]
3 71.020905 -0.000060 0.000060 0.000319 -0.002325 -105.605537 71.020905
4 71.020905 -0.000060 0.000060 0.000318 -0.002326 -105.568283 71.020905
[R_forearm]
3 322.776428 -0.000060 0.000030 0.201820 0.066029 -108.557014 322.776428
4 322.776428 -0.000060 0.000030 0.201702 0.066388 -108.760818 322.776428
[R_front_hand]
3 238.847015 -0.006795 2.210259 -2.635298 -10.645461 -26.312506 238.857239
4 238.847015 -0.006795 2.210259 -2.635299 -10.645460 -26.312500 238.857239
[R_weapon_bone]
3 155.664093 0.002503 -0.000030 0.003487 0.001180 -90.988930 155.664078
4 155.664093 0.002503 -0.000030 0.003487 0.001180 -90.988930 155.664078
[R_front_hand01_01]
3 87.624611 14.231146 22.918642 -154.633499 -59.950619 61.746044 91.683487
4 87.624611 14.231146 22.918642 -153.951385 -59.756760 60.953682 91.683487
[R_front_hand02_01]
3 89.356956 14.367283 -19.491137 154.602661 58.302849 63.744389 92.579636
4 89.356956 14.367283 -19.491137 153.963715 58.112652 62.995510 92.579636
[R_front_hand03_01]
3 87.286232 -22.307278 -0.143439 0.162155 -0.423168 -75.767921 90.091743
4 87.286232 -22.307278 -0.143439 0.156617 -0.426811 -75.329918 90.091743
[R_front_hand01_02]
3 71.020905 0.000060 0.000119 0.002323 -0.000334 106.381714 71.020905
4 71.020905 0.000060 0.000119 0.002323 -0.000334 106.381721 71.020905
[R_front_hand02_02]
3 71.020844 -0.000030 -0.000119 0.002323 -0.000334 106.381714 71.020836
4 71.020844 -0.000030 -0.000119 0.002323 -0.000334 106.381721 71.020836
[R_front_hand03_02]
3 71.020905 0.000000 0.000030 0.002323 -0.000334 106.381714 71.020905
4 71.020905 0.000000 0.000030 0.002323 -0.000334 106.381721 71.020905
[null_rope01_connect]
3 328.732483 0.000000 -0.000238 -155.472641 -77.302071 -147.274918 328.732483
4 328.732483 0.000000 -0.000238 -138.726898 -82.786972 -175.374039 328.732483
[Rope1_Seg01]
3 0.000000 0.000000 0.000000 15.609842 48.397949 -155.724060 0.000000
4 0.000000 0.000000 0.000000 20.923267 51.193306 -149.870468 0.000000
[Rope1_Seg02]
3 139.999863 -0.000179 0.000000 -0.810679 -2.406515 -15.667389 139.999863
4 139.999863 -0.000179 0.000000 -0.745230 1.229236 -17.264036 139.999863
[Rope1_Seg03]
3 139.999924 0.000060 -0.000060 -1.284577 -18.591619 -1.542247 139.999924
4 139.999924 0.000060 -0.000060 2.452935 -1.959848 -16.882929 139.999924
[Rope1_Seg04]
3 139.999924 -0.000060 -0.000119 -10.205369 27.581860 -45.491127 139.999924
4 139.999924 -0.000060 -0.000119 3.657227 -3.783098 -10.992790 139.999924
[Rope1_Seg05]
3 139.999832 0.000119 -0.000060 -7.408055 26.814703 -34.810612 139.999832
4 139.999832 0.000119 -0.000060 -0.088101 13.073991 -19.855408 139.999832
[Rope1_Seg06]
3 139.999954 0.000119 -0.000060 28.138000 3.667780 -4.952727 139.999954
4 139.999954 0.000119 -0.000060 0.395483 22.361103 -29.622736 139.999954
[Rope1_Seg07]
3 139.999985 0.000060 0.000000 129.601517 0.443536 -3.038492 139.999985
4 139.999985 0.000060 0.000000 141.851776 6.904098 -12.564427 139.999985
[Rope1_Seg09]
3 121.602913 0.000119 -0.000089 -89.793175 -1.359789 0.847147 121.602913
4 121.602913 0.000119 -0.000089 -89.793175 -1.359789 0.847147 121.602913
[L_mid_hand01]
3 103.859421 1.038730 8.195221 126.075401 -65.098549 -33.991913 104.187431
4 103.859421 1.038730 8.195221 122.214584 -62.281197 -29.682938 104.187431
[L_mid_hand02]
3 105.572853 -4.139662 -10.864139 -166.035263 42.723965 -69.273842 106.211075
4 105.572853 -4.139662 -10.864139 -163.055786 41.815422 -64.846161 106.211075
[L_mid_hand03]
3 104.641464 17.579376 -3.913581 -7.014418 17.452778 71.596474 106.179977
4 104.641464 17.579376 -3.913581 -8.059160 17.002192 68.062866 106.179977
[null_rope02_connect]
3 328.732849 0.000179 -0.000119 -105.648033 69.182617 35.365597 328.732849
4 328.732849 0.000179 -0.000119 -95.472435 68.508377 40.666759 328.732849
[Rope2_Seg01]
3 0.000040 0.000146 0.000000 35.451988 57.219841 -31.030510 0.000151
4 0.000041 0.000143 0.000000 27.743748 48.251942 -39.150883 0.000148
[Rope2_Seg02]
3 139.999741 -0.000060 -0.000119 0.058059 7.794647 -2.155825 139.999756
4 139.999741 -0.000060 -0.000119 0.477346 8.077785 -1.690094 139.999756
[Rope2_Seg03]
3 140.000107 0.000030 0.000000 -0.094102 9.418560 -1.584190 140.000107
4 140.000107 0.000030 0.000000 0.834992 8.715496 0.586116 140.000107
[Rope2_Seg04]
3 139.999802 0.000000 -0.000060 -3.173877 25.983789 -8.215158 139.999802
4 139.999802 0.000000 -0.000060 -3.246132 29.327520 -10.268478 139.999802
[Rope2_Seg05]
3 139.999985 -0.000060 0.000119 -4.126928 30.660652 -15.649225 139.999985
4 139.999985 -0.000060 0.000119 -0.661912 31.318354 -20.914209 139.999985
[Rope2_Seg06]
3 139.999893 -0.000030 -0.000119 -0.368295 6.372852 -2.817772 139.999893
4 139.999893 -0.000030 -0.000119 2.425367 5.903308 -3.930911 139.999893
[Rope2_Seg07]
3 139.999893 0.000060 -0.000060 -0.349314 3.049788 -1.289059 139.999893
4 139.999893 0.000060 -0.000060 1.819321 2.759236 -1.983202 139.999893
[Rope2_Seg09]
3 121.338966 0.000089 -0.000060 33.793236 -1.359788 -0.847141 121.338966
4 121.338966 0.000089 -0.000060 33.793236 -1.359788 -0.847141 121.338966
[R_mid_hand01]
3 104.680779 11.144459 -10.335981 -17.548510 44.833435 68.572052 105.778534
4 104.680779 11.144459 -10.335981 -19.035425 44.336292 66.455589 105.778534
[R_mid_hand02]
3 104.070427 2.443552 8.231699 51.203640 -66.683899 36.975819 104.424065
4 104.070427 2.443552 8.231699 53.394081 -65.425781 34.575901 104.424065
[R_mid_hand03]
3 106.028137 -11.221827 -5.996406 -176.709671 15.475002 -75.137619 106.788818
4 106.028137 -11.221827 -5.996406 -176.276184 15.379540 -73.491829 106.788818
[spine02]
3 129.756927 0.001550 0.000119 0.409493 -4.039580 -13.619256 129.756927
4 129.756927 0.001550 0.000119 0.430063 -4.037280 -13.924034 129.756927
[spine03]
3 78.614075 0.081744 -4.899006 1.925175 3.816900 16.913914 78.766609
4 78.614075 0.081743 -4.899006 1.938157 3.810322 17.094389 78.766609
[pelvis]
3 169.435242 0.051022 0.000000 0.294660 -0.257651 13.618917 169.435257
4 169.435242 0.051022 0.000000 0.694353 -0.341617 13.055061 169.435257
[null_rope03_connect]
3 -1.257226 -2.466202 137.391083 -162.737183 -89.337952 -126.414642 137.418976
4 -1.257226 -2.466202 137.391083 -141.453369 -88.610268 -140.010895 137.418976
[null_rope04_connect]
3 -1.259640 -2.480268 -137.844437 -162.737183 -89.337952 -126.414642 137.872513
4 -1.259640 -2.480268 -137.844437 -141.453369 -88.610268 -140.010895 137.872513
[Rope3_Seg01]
3 0.000000 0.000000 0.000000 12.090213 15.264616 -96.581772 0.000000
4 0.000000 0.000000 0.000000 14.735855 4.948089 -96.209862 0.000000
[Rope3_Seg02]
3 139.999924 -0.000119 0.000060 1.273537 -4.217946 10.094353 139.999924
4 139.999924 -0.000119 0.000060 1.747631 -4.445857 16.494675 139.999924
[Rope3_Seg03]
3 139.999924 -0.000119 0.000119 -3.103791 -12.512077 26.279726 139.999924
4 139.999924 -0.000119 0.000119 -12.910192 -13.557682 46.473648 139.999924
[Rope3_Seg04]
3 139.999924 0.000119 0.000000 -9.419774 -9.916314 27.213442 139.999924
4 139.999924 0.000119 0.000000 -20.035648 -11.041817 29.100681 139.999924
[Rope3_Seg05]
3 139.999924 -0.000238 0.000060 6.911606 52.149593 -37.310513 139.999924
4 139.999924 -0.000238 0.000060 158.848679 40.060139 57.740002 139.999924
[Rope3_Seg06]
3 139.999893 -0.000119 -0.000060 3.589593 17.459549 -20.398649 139.999893
4 139.999893 -0.000119 -0.000060 24.410465 1.607645 -51.951511 139.999893
[Rope3_Seg07]
3 139.999771 0.000060 -0.000119 1.346523 4.895942 -6.578205 139.999771
4 139.999771 0.000060 -0.000119 1.220322 -2.127298 -6.133215 139.999771
[Rope3_Seg08]
3 139.999985 -0.000060 0.000000 0.719646 1.064737 -1.515062 139.999985
4 139.999985 -0.000060 0.000000 0.571094 -0.169178 -0.454191 139.999985
[Rope3_Seg09]
3 90.185997 -0.000179 -0.000060 89.793228 -1.359877 -0.847183 90.185997
4 90.185997 -0.000179 -0.000060 89.793228 -1.359877 -0.847183 90.185997
[R_rear_hand01]
3 103.366196 -6.073594 -10.757982 -176.918228 24.486242 -72.002144 104.101845
4 103.366196 -6.073594 -10.757982 -176.027405 24.361643 -69.845345 104.101845
[R_rear_hand02]
3 100.509819 12.039542 -7.992327 -14.131634 36.459908 70.059998 101.543350
4 100.509819 12.039542 -7.992327 -15.526566 35.959644 67.697319 101.543350
[R_rear_hand03]
3 101.539970 5.215704 5.435467 73.022980 -70.158020 19.886856 101.819031
4 101.539970 5.215704 5.435467 74.484848 -68.272499 18.324223 101.819031
[Rope4_Seg01]
3 0.000010 0.000036 -0.000146 -101.560493 11.520322 -117.774841 0.000151
4 0.000010 0.000036 -0.000143 -98.878960 2.222413 -114.763474 0.000147
[Rope4_Seg02]
3 139.999985 0.000060 0.000119 -0.742379 -2.094383 1.731770 139.999985
4 139.999985 0.000060 0.000119 -0.416929 0.331787 2.359738 139.999985
[Rope4_Seg03]
3 139.999924 0.000000 -0.000238 -0.860034 -2.708267 2.124670 139.999924
4 139.999924 0.000000 -0.000238 -0.695042 -0.147517 3.138569 139.999924
[Rope4_Seg04]
3 139.999985 0.000000 0.000119 -0.706814 -11.532953 -0.220236 139.999985
4 139.999985 0.000000 0.000119 -0.693828 -9.792960 0.006503 139.999985
[Rope4_Seg05]
3 139.999802 -0.000060 -0.000119 -0.291459 4.460765 7.107247 139.999802
4 139.999802 -0.000060 -0.000119 2.517524 33.948360 32.286610 139.999802
[Rope4_Seg06]
3 139.999924 0.000000 0.000060 2.621871 27.367563 17.127010 139.999924
4 139.999924 0.000000 0.000060 -70.076416 28.246326 29.489082 139.999924
[Rope4_Seg07]
3 139.999802 0.000000 0.000000 -2.320224 12.012300 8.201051 139.999802
4 139.999802 0.000000 0.000000 -36.251328 -5.039680 8.041253 139.999802
[Rope4_Seg08]
3 139.999924 0.000000 0.000119 -4.510652 5.573391 4.337181 139.999924
4 139.999924 0.000000 0.000119 -10.352195 -3.823178 1.535659 139.999924
[Rope4_Seg09]
3 90.185791 0.000060 0.000060 -135.617828 2.228885 0.850567 90.185791
4 90.185791 0.000060 0.000060 -135.617828 2.228885 0.850567 90.185791
[L_rear_hand01]
3 101.696655 -8.392275 -7.654577 -17.565516 -35.113850 115.806488 102.329041
4 101.696655 -8.392275 -7.654577 -21.754822 -32.891220 123.292305 102.329041
[L_rear_hand02]
3 102.726799 -1.568258 5.773216 76.237793 65.389854 163.579773 102.900848
4 102.726799 -1.568258 5.773216 78.924988 58.957436 166.614059 102.900848
[L_rear_hand03]
3 104.552910 9.721220 -10.420293 -174.689285 -24.125307 -113.408821 105.519653
4 104.552910 9.721220 -10.420293 -171.809479 -23.347528 -120.557556 105.519653
